<?xml version="1.0" standalone="no"?>
<!DOCTYPE svg PUBLIC "-//W3C//DTD SVG 20010904//EN"
 "http://www.w3.org/TR/2001/REC-SVG-20010904/DTD/svg10.dtd">
<svg version="1.0" xmlns="http://www.w3.org/2000/svg"
 width="630.000000pt" height="630.000000pt" viewBox="0 0 630.000000 630.000000"
 preserveAspectRatio="xMidYMid meet">
<metadata>
Created by potrace 1.11, written by Peter Selinger 2001-2013
</metadata>
<g transform="translate(0.000000,630.000000) scale(0.100000,-0.100000)"
fill="#000000" stroke="none">
<path d="M0 3150 l0 -3150 3150 0 3150 0 0 3150 0 3150 -3150 0 -3150 0 0
-3150z m1602 173 l3 -418 27 -51 c56 -106 156 -160 277 -152 109 8 195 69 243
173 23 49 23 57 26 458 l3 407 90 0 89 0 0 -590 0 -590 -89 0 -90 0 -3 52 -3
51 -31 -26 c-201 -170 -540 -108 -662 121 -59 111 -62 136 -62 579 l0 403 90
0 89 0 3 -417z m1058 206 l0 -211 50 37 c176 129 419 108 575 -49 178 -180
178 -454 1 -632 -158 -157 -397 -178 -576 -50 l-50 36 0 -50 0 -50 -85 0 -85
0 0 590 0 590 85 0 85 0 0 -211z m1362 -100 c199 -43 338 -221 338 -436 l0
-63 -351 0 -350 0 6 -22 c26 -86 77 -147 158 -190 65 -35 183 -32 259 5 31 15
69 42 83 59 30 35 40 33 110 -27 l40 -34 -49 -50 c-103 -105 -267 -152 -418
-120 -219 47 -358 218 -358 440 0 287 255 497 532 438z m868 -79 l0 -80 -52 0
c-59 0 -122 -25 -155 -61 -49 -54 -53 -79 -53 -374 l0 -275 -85 0 -85 0 0 430
0 430 85 0 85 0 0 -47 0 -47 39 38 c43 42 103 64 174 65 l47 1 0 -80z"/>
<path d="M2875 3277 c-67 -23 -101 -44 -143 -92 -55 -63 -76 -128 -70 -219 6
-89 30 -138 99 -200 145 -130 369 -85 456 92 23 47 28 70 28 132 0 85 -21 142
-74 203 -66 75 -204 114 -296 84z"/>
<path d="M3848 3277 c-68 -22 -123 -70 -157 -138 l-32 -64 262 -3 c144 -1 264
0 267 2 2 3 -7 30 -22 60 -60 123 -193 182 -318 143z"/>
</g>
</svg>
